<mxfile host="app.diagrams.net" modified="2022-09-02T20:43:58.933Z" agent="5.0 (Windows NT 10.0; Win64; x64) AppleWebKit/537.36 (KHTML, like Gecko) Chrome/105.0.0.0 Safari/537.36 Edg/105.0.1343.25" etag="5PgLfFVn1XFp7eh8mWEQ" version="20.2.8" type="github">
  <diagram id="wFE0QG_FPsp0jaGvCLVb" name="Page-1">
    <mxGraphModel dx="1108" dy="482" grid="1" gridSize="10" guides="1" tooltips="1" connect="1" arrows="1" fold="1" page="1" pageScale="1" pageWidth="850" pageHeight="1100" math="0" shadow="0">
      <root>
        <mxCell id="0" />
        <mxCell id="1" parent="0" />
        <mxCell id="ecDhr_SUKPzhUWiLF1AI-2" value="MicroServicio Customers" style="rounded=0;whiteSpace=wrap;html=1;absoluteArcSize=1;arcSize=14;strokeWidth=2;" parent="1" vertex="1">
          <mxGeometry x="460" y="140" width="100" height="60" as="geometry" />
        </mxCell>
        <mxCell id="ecDhr_SUKPzhUWiLF1AI-3" value="MicroServicio Accounts" style="rounded=0;whiteSpace=wrap;html=1;absoluteArcSize=1;arcSize=14;strokeWidth=2;" parent="1" vertex="1">
          <mxGeometry x="460" y="260" width="100" height="50" as="geometry" />
        </mxCell>
        <mxCell id="ecDhr_SUKPzhUWiLF1AI-13" style="edgeStyle=orthogonalEdgeStyle;rounded=0;orthogonalLoop=1;jettySize=auto;html=1;exitX=0.25;exitY=0.2;exitDx=0;exitDy=0;exitPerimeter=0;" parent="1" source="ecDhr_SUKPzhUWiLF1AI-12" edge="1">
          <mxGeometry relative="1" as="geometry">
            <mxPoint x="130" y="290" as="targetPoint" />
            <Array as="points">
              <mxPoint x="80" y="290" />
            </Array>
          </mxGeometry>
        </mxCell>
        <mxCell id="ecDhr_SUKPzhUWiLF1AI-12" value="" style="shape=actor;whiteSpace=wrap;html=1;" parent="1" vertex="1">
          <mxGeometry x="70" y="300" width="40" height="60" as="geometry" />
        </mxCell>
        <mxCell id="ecDhr_SUKPzhUWiLF1AI-14" value="app Banco" style="whiteSpace=wrap;html=1;aspect=fixed;" parent="1" vertex="1">
          <mxGeometry x="130" y="250" width="80" height="80" as="geometry" />
        </mxCell>
        <mxCell id="ecDhr_SUKPzhUWiLF1AI-15" value="" style="curved=1;endArrow=classic;html=1;rounded=0;entryX=0;entryY=0.5;entryDx=0;entryDy=0;" parent="1" target="ecDhr_SUKPzhUWiLF1AI-2" edge="1">
          <mxGeometry width="50" height="50" relative="1" as="geometry">
            <mxPoint x="360" y="290" as="sourcePoint" />
            <mxPoint x="410" y="240" as="targetPoint" />
            <Array as="points">
              <mxPoint x="410" y="290" />
              <mxPoint x="360" y="240" />
            </Array>
          </mxGeometry>
        </mxCell>
        <mxCell id="ecDhr_SUKPzhUWiLF1AI-16" value="" style="curved=1;endArrow=classic;html=1;rounded=0;entryX=0;entryY=0.5;entryDx=0;entryDy=0;" parent="1" target="ecDhr_SUKPzhUWiLF1AI-3" edge="1">
          <mxGeometry width="50" height="50" relative="1" as="geometry">
            <mxPoint x="360" y="290" as="sourcePoint" />
            <mxPoint x="430" y="360" as="targetPoint" />
            <Array as="points">
              <mxPoint x="400" y="310" />
              <mxPoint x="420" y="320" />
            </Array>
          </mxGeometry>
        </mxCell>
        <mxCell id="upk0esoUlvN172wJQaYy-1" value="MicroServicio Credit" style="rounded=0;whiteSpace=wrap;html=1;absoluteArcSize=1;arcSize=14;strokeWidth=2;" parent="1" vertex="1">
          <mxGeometry x="460" y="370" width="100" height="60" as="geometry" />
        </mxCell>
        <mxCell id="upk0esoUlvN172wJQaYy-2" value="" style="curved=1;endArrow=classic;html=1;rounded=0;entryX=0;entryY=0.5;entryDx=0;entryDy=0;" parent="1" target="upk0esoUlvN172wJQaYy-1" edge="1">
          <mxGeometry width="50" height="50" relative="1" as="geometry">
            <mxPoint x="360" y="290" as="sourcePoint" />
            <mxPoint x="230" y="470" as="targetPoint" />
            <Array as="points">
              <mxPoint x="420" y="370" />
              <mxPoint x="400" y="380" />
            </Array>
          </mxGeometry>
        </mxCell>
        <mxCell id="upk0esoUlvN172wJQaYy-6" value="" style="swimlane;startSize=0;rounded=0;fillColor=none;gradientColor=none;dashed=1;dashPattern=1 4;" parent="1" vertex="1">
          <mxGeometry x="397" y="100" width="200" height="350" as="geometry" />
        </mxCell>
        <mxCell id="2izcpCNhGacUmRU1CA1P-1" value="localhost:8087" style="text;html=1;strokeColor=none;fillColor=none;align=center;verticalAlign=middle;whiteSpace=wrap;rounded=0;dashed=1;dashPattern=1 4;" parent="upk0esoUlvN172wJQaYy-6" vertex="1">
          <mxGeometry x="83" y="10" width="60" height="30" as="geometry" />
        </mxCell>
        <mxCell id="2izcpCNhGacUmRU1CA1P-3" value="localhost:8088" style="text;html=1;strokeColor=none;fillColor=none;align=center;verticalAlign=middle;whiteSpace=wrap;rounded=0;dashed=1;dashPattern=1 4;" parent="upk0esoUlvN172wJQaYy-6" vertex="1">
          <mxGeometry x="83" y="130" width="60" height="30" as="geometry" />
        </mxCell>
        <mxCell id="2izcpCNhGacUmRU1CA1P-4" value="localhost:8085" style="text;html=1;strokeColor=none;fillColor=none;align=center;verticalAlign=middle;whiteSpace=wrap;rounded=0;dashed=1;dashPattern=1 4;" parent="upk0esoUlvN172wJQaYy-6" vertex="1">
          <mxGeometry x="83" y="240" width="60" height="30" as="geometry" />
        </mxCell>
        <mxCell id="upk0esoUlvN172wJQaYy-12" value="" style="edgeStyle=orthogonalEdgeStyle;rounded=0;orthogonalLoop=1;jettySize=auto;html=1;dashed=1;dashPattern=1 1;" parent="1" source="ecDhr_SUKPzhUWiLF1AI-3" edge="1">
          <mxGeometry relative="1" as="geometry">
            <mxPoint x="575" y="437.5" as="sourcePoint" />
            <mxPoint x="337" y="500" as="targetPoint" />
            <Array as="points">
              <mxPoint x="510" y="320" />
              <mxPoint x="337" y="320" />
            </Array>
          </mxGeometry>
        </mxCell>
        <mxCell id="upk0esoUlvN172wJQaYy-13" style="edgeStyle=orthogonalEdgeStyle;rounded=0;orthogonalLoop=1;jettySize=auto;html=1;dashed=1;dashPattern=1 1;" parent="1" source="upk0esoUlvN172wJQaYy-1" edge="1">
          <mxGeometry relative="1" as="geometry">
            <mxPoint x="337" y="500" as="targetPoint" />
          </mxGeometry>
        </mxCell>
        <mxCell id="upk0esoUlvN172wJQaYy-14" value="github" style="text;html=1;strokeColor=none;fillColor=none;align=center;verticalAlign=middle;whiteSpace=wrap;rounded=0;dashed=1;dashPattern=1 4;" parent="1" vertex="1">
          <mxGeometry x="230" y="630" width="60" height="30" as="geometry" />
        </mxCell>
        <mxCell id="2izcpCNhGacUmRU1CA1P-5" value="" style="ellipse;shape=cloud;whiteSpace=wrap;html=1;" parent="1" vertex="1">
          <mxGeometry x="265" y="600" width="120" height="80" as="geometry" />
        </mxCell>
        <mxCell id="2izcpCNhGacUmRU1CA1P-7" value="&#xa;&lt;span style=&quot;color: rgb(0, 0, 0); font-family: Helvetica; font-size: 12px; font-style: normal; font-variant-ligatures: normal; font-variant-caps: normal; font-weight: 400; letter-spacing: normal; orphans: 2; text-align: center; text-indent: 0px; text-transform: none; widows: 2; word-spacing: 0px; -webkit-text-stroke-width: 0px; background-color: rgb(248, 249, 250); text-decoration-thickness: initial; text-decoration-style: initial; text-decoration-color: initial; float: none; display: inline !important;&quot;&gt;Config Server&lt;/span&gt;&#xa;&#xa;" style="whiteSpace=wrap;html=1;aspect=fixed;" parent="1" vertex="1">
          <mxGeometry x="280" y="500" width="80" height="80" as="geometry" />
        </mxCell>
        <mxCell id="2izcpCNhGacUmRU1CA1P-8" value="" style="endArrow=classic;html=1;rounded=0;exitX=0.5;exitY=1;exitDx=0;exitDy=0;" parent="1" source="2izcpCNhGacUmRU1CA1P-7" target="2izcpCNhGacUmRU1CA1P-5" edge="1">
          <mxGeometry relative="1" as="geometry">
            <mxPoint x="250" y="590" as="sourcePoint" />
            <mxPoint x="330" y="520" as="targetPoint" />
          </mxGeometry>
        </mxCell>
        <mxCell id="2izcpCNhGacUmRU1CA1P-11" value="&lt;span style=&quot;font-size: 14px; background-color: initial;&quot;&gt;config-data/&lt;/span&gt;&lt;br&gt;&lt;div style=&quot;&quot;&gt;&lt;ol&gt;&lt;li&gt;&lt;span style=&quot;background-color: initial;&quot;&gt;account-service.yml&lt;/span&gt;&lt;/li&gt;&lt;li&gt;&lt;span style=&quot;background-color: initial;&quot;&gt;credit-service.yml&lt;/span&gt;&lt;/li&gt;&lt;li&gt;&lt;span style=&quot;background-color: initial;&quot;&gt;customer-service.yml&lt;/span&gt;&lt;/li&gt;&lt;li&gt;&lt;span style=&quot;background-color: initial;&quot;&gt;register-service.yml&lt;/span&gt;&lt;/li&gt;&lt;li&gt;&lt;span style=&quot;background-color: initial;&quot;&gt;gateway-service.yml&lt;/span&gt;&lt;/li&gt;&lt;/ol&gt;&lt;/div&gt;&lt;p&gt;.&lt;/p&gt;" style="text;html=1;spacing=5;spacingTop=-20;whiteSpace=wrap;overflow=hidden;rounded=0;dashed=1;strokeColor=default;" parent="1" vertex="1">
          <mxGeometry x="385" y="620" width="190" height="100" as="geometry" />
        </mxCell>
        <mxCell id="2izcpCNhGacUmRU1CA1P-12" value="" style="edgeStyle=orthogonalEdgeStyle;rounded=0;orthogonalLoop=1;jettySize=auto;html=1;dashed=1;dashPattern=1 1;exitX=0;exitY=0.5;exitDx=0;exitDy=0;" parent="1" source="ecDhr_SUKPzhUWiLF1AI-2" edge="1">
          <mxGeometry relative="1" as="geometry">
            <mxPoint x="512" y="140" as="sourcePoint" />
            <mxPoint x="339" y="330" as="targetPoint" />
            <Array as="points">
              <mxPoint x="460" y="140" />
              <mxPoint x="452" y="140" />
              <mxPoint x="452" y="150" />
              <mxPoint x="339" y="150" />
            </Array>
          </mxGeometry>
        </mxCell>
        <mxCell id="QwJdkXdDj5PMeQ1F39rr-1" value="GatewayService" style="whiteSpace=wrap;html=1;aspect=fixed;" vertex="1" parent="1">
          <mxGeometry x="240" y="280" width="80" height="80" as="geometry" />
        </mxCell>
        <mxCell id="QwJdkXdDj5PMeQ1F39rr-3" value="localhost:8888" style="text;html=1;strokeColor=none;fillColor=none;align=center;verticalAlign=middle;whiteSpace=wrap;rounded=0;dashed=1;dashPattern=1 4;" vertex="1" parent="1">
          <mxGeometry x="295" y="540" width="60" height="30" as="geometry" />
        </mxCell>
      </root>
    </mxGraphModel>
  </diagram>
</mxfile>
